400.ufo
<glyph name="dollar" format="1">
  <advance width="1221"/>
  <unicode hex="0024"/>
  <outline>
    <contour>
      <point x="567" y="1765" type="line"/>
      <point x="549" y="1426" type="line"/>
      <point x="690" y="1426" type="line"/>
      <point x="690" y="1765" type="line"/>
    </contour>
    <contour>
      <point x="547" y="41" type="line"/>
      <point x="547" y="-298" type="line"/>
      <point x="664" y="-298" type="line"/>
      <point x="682" y="41" type="line"/>
    </contour>
    <component base="S"/>
  </outline>
</glyph>
<glyph name="plus" format="1">
  <advance width="1136"/>
  <unicode hex="002B"/>
  <outline>
    <contour>
      <point x="477" y="1156" type="line"/>
      <point x="477" y="777" type="line"/>
      <point x="118" y="777" type="line"/>
      <point x="118" y="611" type="line"/>
      <point x="476" y="611" type="line"/>
      <point x="476" y="227" type="line"/>
      <point x="648" y="227" type="line"/>
      <point x="648" y="611" type="line"/>
      <point x="1001" y="611" type="line"/>
      <point x="1001" y="777" type="line"/>
      <point x="648" y="777" type="line"/>
      <point x="648" y="1156" type="line"/>
    </contour>
  </outline>
</glyph>
<glyph name="one" format="1">
  <advance width="1248"/>
  <unicode hex="0031"/>
  <outline>
    <contour>
      <point x="198" y="0" type="line"/>
      <point x="1104" y="0" type="line"/>
      <point x="1104" y="123" type="line"/>
      <point x="702" y="123" type="line"/>
      <point x="755" y="59" type="line"/>
      <point x="755" y="1456" type="line"/>
      <point x="602" y="1456" type="line"/>
      <point x="526" y="1402"/>
      <point x="294" y="1319"/>
      <point x="211" y="1301" type="curve"/>
      <point x="211" y="1166" type="line"/>
      <point x="294" y="1177"/>
      <point x="526" y="1256"/>
      <point x="626" y="1325" type="curve"/>
      <point x="589" y="1357" type="line"/>
      <point x="589" y="67" type="line"/>
      <point x="639" y="123" type="line"/>
      <point x="198" y="123" type="line"/>
    </contour>
  </outline>
</glyph>
<glyph name="three" format="1">
  <advance width="1248"/>
  <unicode hex="0033"/>
  <outline>
    <contour>
      <point x="625" y="-20" type="curve" smooth="yes"/>
      <point x="927" y="-20"/>
      <point x="1079" y="171"/>
      <point x="1080" y="377" type="curve" smooth="yes"/>
      <point x="1081" y="602"/>
      <point x="954" y="760"/>
      <point x="722" y="779" type="curve"/>
      <point x="722" y="762" type="line"/>
      <point x="924" y="791"/>
      <point x="1039" y="913"/>
      <point x="1039" y="1088" type="curve"/>
      <point x="1044" y="1319"/>
      <point x="898" y="1476"/>
      <point x="633" y="1476" type="curve"/>
      <point x="508" y="1476"/>
      <point x="279" y="1440"/>
      <point x="178" y="1226" type="curve"/>
      <point x="279" y="1150" type="line"/>
      <point x="299" y="1150" type="line"/>
      <point x="381" y="1290"/>
      <point x="499" y="1338"/>
      <point x="635" y="1334" type="curve"/>
      <point x="804" y="1334"/>
      <point x="885" y="1237"/>
      <point x="879" y="1086" type="curve"/>
      <point x="879" y="866"/>
      <point x="670" y="837"/>
      <point x="513" y="837" type="curve" smooth="yes"/>
      <point x="442" y="837" type="line"/>
      <point x="467" y="694" type="line"/>
      <point x="512" y="694" type="line" smooth="yes"/>
      <point x="776" y="694"/>
      <point x="917" y="623"/>
      <point x="918" y="389" type="curve" smooth="yes"/>
      <point x="919" y="206"/>
      <point x="787" y="123"/>
      <point x="625" y="123" type="curve" smooth="yes"/>
      <point x="528" y="123"/>
      <point x="384" y="153"/>
      <point x="302" y="289" type="curve"/>
      <point x="289" y="289" type="line"/>
      <point x="186" y="212" type="line"/>
      <point x="291" y="26"/>
      <point x="483" y="-20"/>
    </contour>
  </outline>
</glyph>
<glyph name="seven" format="1">
  <advance width="1248"/>
  <unicode hex="0037"/>
  <outline>
    <contour>
      <point x="346" y="0" type="line"/>
      <point x="512" y="0" type="line"/>
      <point x="1062" y="1336" type="line"/>
      <point x="1062" y="1456" type="line"/>
      <point x="169" y="1456" type="line"/>
      <point x="188" y="1319" type="line"/>
      <point x="888" y="1319" type="line"/>
    </contour>
  </outline>
</glyph>
<glyph name="eight" format="1">
  <advance width="1248"/>
  <unicode hex="0038"/>
  <outline>
    <contour>
      <point x="624" y="-20" type="curve" smooth="yes"/>
      <point x="882" y="-20"/>
      <point x="1095" y="104"/>
      <point x="1095" y="364" type="curve" smooth="yes"/>
      <point x="1095" y="554"/>
      <point x="976" y="704"/>
      <point x="793" y="765" type="curve"/>
      <point x="953" y="824"/>
      <point x="1063" y="934"/>
      <point x="1063" y="1115" type="curve" smooth="yes"/>
      <point x="1063" y="1348"/>
      <point x="881" y="1476"/>
      <point x="625" y="1476" type="curve" smooth="yes"/>
      <point x="369" y="1476"/>
      <point x="183" y="1348"/>
      <point x="183" y="1115" type="curve" smooth="yes"/>
      <point x="183" y="934"/>
      <point x="303" y="815"/>
      <point x="458" y="763" type="curve"/>
      <point x="266" y="695"/>
      <point x="152" y="569"/>
      <point x="152" y="364" type="curve" smooth="yes"/>
      <point x="152" y="104"/>
      <point x="368" y="-20"/>
    </contour>
    <contour>
      <point x="624" y="111" type="curve" smooth="yes"/>
      <point x="417" y="111"/>
      <point x="307" y="204"/>
      <point x="307" y="379" type="curve" smooth="yes"/>
      <point x="307" y="558"/>
      <point x="444" y="658"/>
      <point x="624" y="698" type="curve"/>
      <point x="805" y="658"/>
      <point x="938" y="552"/>
      <point x="938" y="380" type="curve" smooth="yes"/>
      <point x="938" y="198"/>
      <point x="837" y="111"/>
    </contour>
    <contour>
      <point x="624" y="818" type="curve"/>
      <point x="439" y="860"/>
      <point x="343" y="960"/>
      <point x="343" y="1120" type="curve" smooth="yes"/>
      <point x="343" y="1265"/>
      <point x="456" y="1350"/>
      <point x="624" y="1350" type="curve" smooth="yes"/>
      <point x="793" y="1350"/>
      <point x="903" y="1265"/>
      <point x="903" y="1120" type="curve" smooth="yes"/>
      <point x="903" y="960"/>
      <point x="811" y="860"/>
    </contour>
  </outline>
</glyph>
<glyph name="nine" format="1">
  <advance width="1248"/>
  <unicode hex="0039"/>
  <outline>
    <contour>
      <point x="355" y="0" type="line"/>
      <point x="535" y="0" type="line"/>
      <point x="896" y="460" type="line" smooth="yes"/>
      <point x="1038" y="640"/>
      <point x="1132" y="790"/>
      <point x="1132" y="1008" type="curve" smooth="yes"/>
      <point x="1132" y="1252"/>
      <point x="960" y="1476"/>
      <point x="658" y="1476" type="curve" smooth="yes"/>
      <point x="371" y="1476"/>
      <point x="176" y="1274"/>
      <point x="176" y="1016" type="curve" smooth="yes"/>
      <point x="176" y="749"/>
      <point x="362" y="565"/>
      <point x="602" y="565" type="curve" smooth="yes"/>
      <point x="726" y="565"/>
      <point x="862" y="622"/>
      <point x="939" y="731" type="curve"/>
      <point x="927" y="745" type="line"/>
      <point x="726" y="481" type="line"/>
      <point x="355" y="21" type="line"/>
    </contour>
    <contour>
      <point x="651" y="697" type="curve" smooth="yes"/>
      <point x="443" y="693"/>
      <point x="338" y="836"/>
      <point x="338" y="1018" type="curve" smooth="yes"/>
      <point x="338" y="1192"/>
      <point x="456" y="1344"/>
      <point x="659" y="1344" type="curve" smooth="yes"/>
      <point x="862" y="1344"/>
      <point x="974" y="1191"/>
      <point x="974" y="1019" type="curve" smooth="yes"/>
      <point x="974" y="775"/>
      <point x="781" y="700"/>
    </contour>
  </outline>
</glyph>
<glyph name="less" format="1">
  <advance width="1107"/>
  <unicode hex="003C"/>
  <outline>
    <contour>
      <point x="1010" y="135" type="line"/>
      <point x="1010" y="280" type="line"/>
      <point x="265" y="640" type="line"/>
      <point x="1010" y="1026" type="line"/>
      <point x="1010" y="1169" type="line"/>
      <point x="80" y="680" type="line"/>
      <point x="80" y="591" type="line"/>
    </contour>
  </outline>
</glyph>
<glyph name="question" format="1">
  <advance width="908"/>
  <unicode hex="003F"/>
  <outline>
    <contour>
      <point x="332" y="424" type="curve"/>
      <point x="415" y="424" type="line"/>
      <point x="514" y="788"/>
      <point x="749" y="836"/>
      <point x="749" y="1132" type="curve" smooth="yes"/>
      <point x="749" y="1380"/>
      <point x="589" y="1477"/>
      <point x="410" y="1477" type="curve" smooth="yes"/>
      <point x="286" y="1477"/>
      <point x="189" y="1437"/>
      <point x="116" y="1382" type="curve"/>
      <point x="149" y="1256" type="line"/>
      <point x="191" y="1285"/>
      <point x="286" y="1343"/>
      <point x="392" y="1343" type="curve" smooth="yes"/>
      <point x="517" y="1343"/>
      <point x="590" y="1273"/>
      <point x="590" y="1127" type="curve" smooth="yes"/>
      <point x="590" y="908"/>
      <point x="341" y="731"/>
    </contour>
    <contour>
      <point x="371" y="-13" type="curve" smooth="yes"/>
      <point x="450" y="-13"/>
      <point x="485" y="41"/>
      <point x="485" y="101" type="curve" smooth="yes"/>
      <point x="485" y="158"/>
      <point x="450" y="214"/>
      <point x="371" y="214" type="curve" smooth="yes"/>
      <point x="292" y="214"/>
      <point x="256" y="158"/>
      <point x="256" y="101" type="curve" smooth="yes"/>
      <point x="256" y="43"/>
      <point x="292" y="-13"/>
    </contour>
  </outline>
</glyph>
<glyph name="D" format="1">
  <advance width="1494"/>
  <unicode hex="0044"/>
  <outline>
    <contour>
      <point x="206" y="11" type="line"/>
      <point x="1062" y="-98"/>
      <point x="1338" y="230"/>
      <point x="1338" y="744" type="curve" smooth="yes"/>
      <point x="1338" y="1241"/>
      <point x="1148" y="1564"/>
      <point x="206" y="1432" type="curve"/>
    </contour>
    <contour>
      <point x="324" y="1315" type="line"/>
      <point x="1017" y="1412"/>
      <point x="1162" y="1173"/>
      <point x="1162" y="739" type="curve" smooth="yes"/>
      <point x="1162" y="326"/>
      <point x="1011" y="40"/>
      <point x="325" y="129" type="curve"/>
      <point x="382" y="70" type="line"/>
      <point x="382" y="1372" type="line"/>
    </contour>
    <contour>
      <point x="779" y="-1" type="move" name="bot"/>
    </contour>
    <contour>
      <point x="735" y="1456" type="move" name="top"/>
    </contour>
    <contour>
      <point x="295" y="769" type="move" name="mid"/>
    </contour>
  </outline>
</glyph>
<glyph name="I" format="1">
  <advance width="965"/>
  <unicode hex="0049"/>
  <outline>
    <contour>
      <point x="198" y="1456" type="line"/>
      <point x="198" y="1347" type="line"/>
      <point x="430" y="1347" type="line"/>
      <point x="390" y="1401" type="line"/>
      <point x="390" y="58" type="line"/>
      <point x="430" y="110" type="line"/>
      <point x="198" y="110" type="line"/>
      <point x="198" y="0" type="line"/>
      <point x="756" y="0" type="line"/>
      <point x="756" y="110" type="line"/>
      <point x="526" y="110" type="line"/>
      <point x="566" y="56" type="line"/>
      <point x="566" y="1402" type="line"/>
      <point x="526" y="1347" type="line"/>
      <point x="756" y="1347" type="line"/>
      <point x="756" y="1456" type="line"/>
    </contour>
    <contour>
      <point x="479" y="0" type="move" name="ogonek"/>
    </contour>
    <contour>
      <point x="478" y="1456" type="move" name="top"/>
    </contour>
  </outline>
</glyph>
<glyph name="L" format="1">
  <advance width="1093"/>
  <unicode hex="004C"/>
  <outline>
    <contour>
      <point x="206" y="1456" type="line"/>
      <point x="206" y="0" type="line"/>
      <point x="1088" y="0" type="line"/>
      <point x="1092" y="137" type="line"/>
      <point x="312" y="137" type="line"/>
      <point x="382" y="72" type="line"/>
      <point x="382" y="1456" type="line"/>
    </contour>
    <contour>
      <point x="549" y="1082" type="move" name="caron.alt"/>
    </contour>
    <contour>
      <point x="326" y="740" type="move" name="mid"/>
    </contour>
    <contour>
      <point x="450" y="1456" type="move" name="top"/>
    </contour>
    <contour>
      <point x="643" y="0" type="move" name="bot"/>
    </contour>
  </outline>
</glyph>
<glyph name="N" format="1">
  <advance width="1513"/>
  <unicode hex="004E"/>
  <outline>
    <contour>
      <point x="1149" y="1456" type="line"/>
      <point x="1149" y="644" type="line"/>
      <point x="1161" y="155" type="line"/>
      <point x="1192" y="170" type="line"/>
      <point x="384" y="1456" type="line"/>
      <point x="206" y="1456" type="line"/>
      <point x="206" y="0" type="line"/>
      <point x="365" y="0" type="line"/>
      <point x="365" y="761" type="line"/>
      <point x="346" y="1302" type="line"/>
      <point x="308" y="1288" type="line"/>
      <point x="1122" y="0" type="line"/>
      <point x="1307" y="0" type="line"/>
      <point x="1307" y="1456" type="line"/>
    </contour>
    <contour>
      <point x="791" y="1456" type="move" name="top"/>
    </contour>
    <contour>
      <point x="773" y="0" type="move" name="bot"/>
    </contour>
  </outline>
</glyph>
<glyph name="O" format="1">
  <advance width="1616"/>
  <unicode hex="004F"/>
  <outline>
    <contour>
      <point x="160" y="721" type="curve" smooth="yes"/>
      <point x="160" y="269"/>
      <point x="364" y="-20"/>
      <point x="811" y="-20" type="curve" smooth="yes"/>
      <point x="1253" y="-20"/>
      <point x="1456" y="275"/>
      <point x="1456" y="718" type="curve" smooth="yes"/>
      <point x="1456" y="1181"/>
      <point x="1241" y="1476"/>
      <point x="812" y="1476" type="curve" smooth="yes"/>
      <point x="374" y="1476"/>
      <point x="160" y="1184"/>
    </contour>
    <contour>
      <point x="1280" y="720" type="curve" smooth="yes"/>
      <point x="1280" y="365"/>
      <point x="1159" y="122"/>
      <point x="809" y="122" type="curve" smooth="yes"/>
      <point x="459" y="122"/>
      <point x="337" y="365"/>
      <point x="337" y="720" type="curve" smooth="yes"/>
      <point x="337" y="1091"/>
      <point x="471" y="1334"/>
      <point x="811" y="1334" type="curve" smooth="yes"/>
      <point x="1152" y="1334"/>
      <point x="1280" y="1089"/>
    </contour>
    <contour>
      <point x="901" y="1" type="move" name="ogonek"/>
    </contour>
    <contour>
      <point x="812" y="1456" type="move" name="top"/>
    </contour>
    <contour>
      <point x="1363" y="720" type="move" name="OE"/>
    </contour>
  </outline>
</glyph>
<glyph name="P" format="1">
  <advance width="1292"/>
  <unicode hex="0050"/>
  <outline>
    <contour>
      <point x="206" y="1432" type="curve"/>
      <point x="206" y="0" type="line"/>
      <point x="382" y="0" type="line"/>
      <point x="382" y="698" type="line"/>
      <point x="322" y="656" type="line"/>
      <point x="1051" y="580"/>
      <point x="1195" y="783"/>
      <point x="1195" y="1068" type="curve" smooth="yes"/>
      <point x="1195" y="1403"/>
      <point x="961" y="1526"/>
    </contour>
    <contour>
      <point x="322" y="1315" type="line"/>
      <point x="920" y="1383"/>
      <point x="1035" y="1284"/>
      <point x="1035" y="1066" type="curve" smooth="yes"/>
      <point x="1035" y="838"/>
      <point x="938" y="720"/>
      <point x="322" y="784" type="curve"/>
      <point x="382" y="740" type="line"/>
      <point x="382" y="1372" type="line"/>
    </contour>
    <contour>
      <point x="688" y="1456" type="move" name="top"/>
    </contour>
  </outline>
</glyph>
<glyph name="V" format="1">
  <advance width="1448"/>
  <unicode hex="0056"/>
  <outline>
    <contour>
      <point x="641" y="0" type="line"/>
      <point x="795" y="0" type="line"/>
      <point x="1364" y="1456" type="line"/>
      <point x="1173" y="1456" type="line"/>
      <point x="855" y="598" type="line"/>
      <point x="695" y="150" type="line"/>
      <point x="742" y="150" type="line"/>
      <point x="583" y="599" type="line"/>
      <point x="264" y="1456" type="line"/>
      <point x="84" y="1456" type="line"/>
    </contour>
  </outline>
</glyph>
<glyph name="X" format="1">
  <advance width="1278"/>
  <unicode hex="0058"/>
  <outline>
    <contour>
      <point x="1022" y="1456" type="line"/>
      <point x="631" y="853" type="line"/>
      <point x="541" y="750" type="line"/>
      <point x="52" y="0" type="line"/>
      <point x="231" y="0" type="line"/>
      <point x="633" y="604" type="line"/>
      <point x="719" y="710" type="line"/>
      <point x="1210" y="1456" type="line"/>
    </contour>
    <contour>
      <point x="53" y="1456" type="line"/>
      <point x="1018" y="0" type="line"/>
      <point x="1217" y="0" type="line"/>
      <point x="248" y="1456" type="line"/>
    </contour>
  </outline>
</glyph>
<glyph name="d" format="1">
  <advance width="1196"/>
  <unicode hex="0064"/>
  <outline>
    <contour>
      <point x="874" y="1540" type="line"/>
      <point x="874" y="1154" type="line"/>
      <point x="882" y="886" type="line"/>
      <point x="945" y="894" type="line"/>
      <point x="893" y="1012"/>
      <point x="775" y="1106"/>
      <point x="590" y="1103" type="curve" smooth="yes"/>
      <point x="295" y="1106"/>
      <point x="116" y="886"/>
      <point x="116" y="545" type="curve"/>
      <point x="116" y="207"/>
      <point x="282" y="-23"/>
      <point x="592" y="-20" type="curve" smooth="yes"/>
      <point x="716" y="-19"/>
      <point x="885" y="46"/>
      <point x="950" y="196" type="curve"/>
      <point x="888" y="173" type="line"/>
      <point x="904" y="0" type="line"/>
      <point x="1045" y="0" type="line"/>
      <point x="1045" y="1560" type="line"/>
    </contour>
    <contour>
      <point x="597" y="106" type="curve" smooth="yes"/>
      <point x="383" y="106"/>
      <point x="286" y="275"/>
      <point x="286" y="548" type="curve" smooth="yes"/>
      <point x="286" y="812"/>
      <point x="385" y="980"/>
      <point x="595" y="980" type="curve" smooth="yes"/>
      <point x="715" y="980"/>
      <point x="822" y="935"/>
      <point x="881" y="850" type="curve"/>
      <point x="881" y="222" type="line"/>
      <point x="814" y="142"/>
      <point x="714" y="106"/>
    </contour>
    <contour>
      <point x="967" y="1312" type="move" name="mid"/>
    </contour>
    <contour>
      <point x="540" y="1082" type="move" name="top"/>
    </contour>
    <contour>
      <point x="1148" y="1212" type="move" name="caron.alt"/>
    </contour>
  </outline>
</glyph>
<glyph name="f" format="1">
  <advance width="753"/>
  <unicode hex="0066"/>
  <outline>
    <contour>
      <point x="376" y="1520"/>
      <point x="264" y="1468"/>
      <point x="264" y="1162" type="curve" smooth="yes"/>
      <point x="264" y="1047" type="line"/>
      <point x="304" y="1082" type="line"/>
      <point x="75" y="1066" type="line"/>
      <point x="70" y="980" type="line"/>
      <point x="304" y="980" type="line"/>
      <point x="264" y="1019" type="line"/>
      <point x="264" y="0" type="line"/>
      <point x="428" y="0" type="line"/>
      <point x="428" y="1020" type="line"/>
      <point x="396" y="980" type="line"/>
      <point x="703" y="980" type="line"/>
      <point x="703" y="1082" type="line"/>
      <point x="392" y="1082" type="line"/>
      <point x="428" y="1045" type="line"/>
      <point x="428" y="1162" type="line" smooth="yes"/>
      <point x="428" y="1351"/>
      <point x="460" y="1393"/>
      <point x="605" y="1393" type="curve" smooth="yes"/>
      <point x="640" y="1393"/>
      <point x="707" y="1386"/>
      <point x="707" y="1386" type="curve"/>
      <point x="719" y="1501" type="line"/>
      <point x="719" y="1501"/>
      <point x="655" y="1516"/>
      <point x="581" y="1517" type="curve" smooth="yes"/>
    </contour>
    <contour>
      <point x="383" y="1456" type="move" name="top"/>
    </contour>
  </outline>
</glyph>
<glyph name="h" format="1">
  <advance width="1203"/>
  <unicode hex="0068"/>
  <outline>
    <contour>
      <point x="170" y="0" type="line"/>
      <point x="333" y="0" type="line"/>
      <point x="333" y="593" type="line" smooth="yes"/>
      <point x="333" y="782"/>
      <point x="409" y="980"/>
      <point x="663" y="980" type="curve" smooth="yes"/>
      <point x="825" y="980"/>
      <point x="885" y="873"/>
      <point x="885" y="664" type="curve" smooth="yes"/>
      <point x="885" y="0" type="line"/>
      <point x="1051" y="0" type="line"/>
      <point x="1051" y="670" type="line" smooth="yes"/>
      <point x="1051" y="948"/>
      <point x="922" y="1106"/>
      <point x="690" y="1106" type="curve" smooth="yes"/>
      <point x="528" y="1106"/>
      <point x="377" y="1046"/>
      <point x="306" y="824" type="curve"/>
      <point x="326" y="815" type="line"/>
      <point x="334" y="1146" type="line"/>
      <point x="334" y="1560" type="line"/>
      <point x="170" y="1540" type="line"/>
    </contour>
    <contour>
      <point x="679" y="1384" type="move" name="top"/>
    </contour>
    <contour>
      <point x="252" y="1284" type="move" name="mid"/>
    </contour>
  </outline>
</glyph>
<glyph name="k" format="1">
  <advance width="1086"/>
  <unicode hex="006B"/>
  <outline>
    <contour>
      <point x="170" y="0" type="line"/>
      <point x="334" y="0" type="line"/>
      <point x="334" y="438" type="line"/>
      <point x="305" y="372" type="line"/>
      <point x="489" y="529" type="line"/>
      <point x="437" y="538" type="line"/>
      <point x="883" y="0" type="line"/>
      <point x="1062" y="0" type="line"/>
      <point x="1062" y="24" type="line"/>
      <point x="550" y="621" type="line"/>
      <point x="546" y="556" type="line"/>
      <point x="1028" y="1058" type="line"/>
      <point x="1028" y="1082" type="line"/>
      <point x="839" y="1082" type="line"/>
      <point x="293" y="499" type="line"/>
      <point x="327" y="486" type="line"/>
      <point x="334" y="757" type="line"/>
      <point x="334" y="1560" type="line"/>
      <point x="170" y="1540" type="line"/>
    </contour>
    <contour>
      <point x="589" y="0" type="move" name="bot"/>
    </contour>
  </outline>
</glyph>
<glyph name="l" format="1">
  <advance width="622"/>
  <unicode hex="006C"/>
  <outline>
    <contour>
      <point x="452" y="-8" type="curve" smooth="yes"/>
      <point x="520" y="-8" type="line"/>
      <point x="534" y="114" type="line"/>
      <point x="481" y="118" type="line" smooth="yes"/>
      <point x="356" y="127"/>
      <point x="336" y="138"/>
      <point x="336" y="310" type="curve" smooth="yes"/>
      <point x="336" y="1560" type="line"/>
      <point x="172" y="1540" type="line"/>
      <point x="172" y="305" type="line" smooth="yes"/>
      <point x="172" y="39"/>
      <point x="271" y="-8"/>
    </contour>
    <contour>
      <point x="472" y="1082" type="move" name="caron.alt"/>
    </contour>
    <contour>
      <point x="288" y="801" type="move" name="mid"/>
    </contour>
    <contour>
      <point x="345" y="1497" type="move" name="top"/>
    </contour>
    <contour>
      <point x="337" y="0" type="move" name="bot"/>
    </contour>
  </outline>
</glyph>
<glyph name="n" format="1">
  <advance width="1198"/>
  <unicode hex="006E"/>
  <outline>
    <contour>
      <point x="168" y="0" type="line"/>
      <point x="332" y="0" type="line"/>
      <point x="332" y="611" type="line" smooth="yes"/>
      <point x="332" y="808"/>
      <point x="427" y="980"/>
      <point x="663" y="980" type="curve" smooth="yes"/>
      <point x="833" y="980"/>
      <point x="882" y="851"/>
      <point x="882" y="669" type="curve" smooth="yes"/>
      <point x="882" y="0" type="line"/>
      <point x="1046" y="0" type="line"/>
      <point x="1046" y="650" type="line" smooth="yes"/>
      <point x="1046" y="945"/>
      <point x="936" y="1106"/>
      <point x="692" y="1106" type="curve" smooth="yes"/>
      <point x="509" y="1106"/>
      <point x="373" y="1032"/>
      <point x="310" y="833" type="curve"/>
      <point x="326" y="826" type="line"/>
      <point x="304" y="1082" type="line"/>
      <point x="168" y="1082" type="line"/>
    </contour>
    <contour>
      <point x="696" y="1082" type="move" name="top"/>
    </contour>
    <contour>
      <point x="602" y="0" type="move" name="bot"/>
    </contour>
    <contour>
      <point x="138" y="1084" type="move" name="mid"/>
    </contour>
  </outline>
</glyph>
<glyph name="u" format="1">
  <advance width="1201"/>
  <unicode hex="0075"/>
  <outline>
    <contour>
      <point x="543" y="-20" type="curve" smooth="yes"/>
      <point x="746" y="-20"/>
      <point x="867" y="83"/>
      <point x="937" y="217" type="curve"/>
      <point x="877" y="208" type="line"/>
      <point x="891" y="0" type="line"/>
      <point x="1033" y="0" type="line"/>
      <point x="1033" y="1082" type="line"/>
      <point x="869" y="1082" type="line"/>
      <point x="869" y="216" type="line"/>
      <point x="893" y="286" type="line"/>
      <point x="865" y="253"/>
      <point x="782" y="103"/>
      <point x="558" y="103" type="curve" smooth="yes"/>
      <point x="380" y="103"/>
      <point x="316" y="217"/>
      <point x="316" y="403" type="curve" smooth="yes"/>
      <point x="316" y="1082" type="line"/>
      <point x="152" y="1082" type="line"/>
      <point x="152" y="404" type="line" smooth="yes"/>
      <point x="152" y="119"/>
      <point x="286" y="-20"/>
    </contour>
    <contour>
      <point x="957" y="1" type="move" name="ogonek"/>
    </contour>
    <contour>
      <point x="558" y="1" type="move" name="bot"/>
    </contour>
    <contour>
      <point x="615" y="1083" type="move" name="top"/>
    </contour>
  </outline>
</glyph>
<glyph name="w" format="1">
  <advance width="1505"/>
  <unicode hex="0077"/>
  <outline>
    <contour>
      <point x="1327" y="1082" type="line"/>
      <point x="1104" y="169" type="line"/>
      <point x="1138" y="169" type="line"/>
      <point x="842" y="1082" type="line"/>
      <point x="665" y="1082" type="line"/>
      <point x="389" y="168" type="line"/>
      <point x="425" y="168" type="line"/>
      <point x="181" y="1082" type="line"/>
      <point x="26" y="1082" type="line"/>
      <point x="326" y="0" type="line"/>
      <point x="473" y="0" type="line"/>
      <point x="774" y="973" type="line"/>
      <point x="742" y="973" type="line"/>
      <point x="1049" y="0" type="line"/>
      <point x="1196" y="0" type="line"/>
      <point x="1479" y="1082" type="line"/>
    </contour>
    <contour>
      <point x="756" y="1082" type="move" name="top"/>
    </contour>
  </outline>
</glyph>
<glyph name="y" format="1">
  <advance width="1131"/>
  <unicode hex="0079"/>
  <outline>
    <contour>
      <point x="1076" y="1082" type="line"/>
      <point x="917" y="1082" type="line"/>
      <point x="562" y="176" type="line"/>
      <point x="520" y="93" type="line"/>
      <point x="344" y="-377" type="line"/>
      <point x="487" y="-410" type="line"/>
    </contour>
    <contour>
      <point x="621" y="118" type="line"/>
      <point x="220" y="1082" type="line"/>
      <point x="46" y="1082" type="line"/>
      <point x="540" y="-65" type="line"/>
    </contour>
    <contour>
      <point x="585" y="1082" type="move" name="top"/>
    </contour>
  </outline>
</glyph>
<glyph name="cent" format="1">
  <advance width="1072"/>
  <unicode hex="00A2"/>
  <outline>
    <contour>
      <point x="548" y="1391" type="line"/>
      <point x="535" y="1062" type="line"/>
      <point x="659" y="1062" type="line"/>
      <point x="659" y="1391" type="line"/>
    </contour>
    <contour>
      <point x="537" y="32" type="line"/>
      <point x="537" y="-310" type="line"/>
      <point x="651" y="-310" type="line"/>
      <point x="671" y="32" type="line"/>
    </contour>
    <component base="c"/>
  </outline>
</glyph>
<glyph name="sterling" format="1">
  <advance width="1136"/>
  <unicode hex="00A3"/>
  <outline>
    <contour>
      <point x="941" y="1226" type="line"/>
      <point x="1004" y="1338" type="line"/>
      <point x="936" y="1405"/>
      <point x="835" y="1476"/>
      <point x="661" y="1476" type="curve" smooth="yes"/>
      <point x="330" y="1476"/>
      <point x="243" y="1216"/>
      <point x="243" y="953" type="curve" smooth="yes"/>
      <point x="243" y="806" type="line"/>
      <point x="71" y="806" type="line"/>
      <point x="71" y="683" type="line"/>
      <point x="243" y="683" type="line"/>
      <point x="243" y="132" type="line"/>
      <point x="71" y="115" type="line"/>
      <point x="83" y="0" type="line"/>
      <point x="1003" y="0" type="line"/>
      <point x="1016" y="134" type="line"/>
      <point x="419" y="134" type="line"/>
      <point x="419" y="683" type="line"/>
      <point x="802" y="683" type="line"/>
      <point x="802" y="806" type="line"/>
      <point x="419" y="806" type="line"/>
      <point x="419" y="949" type="line" smooth="yes"/>
      <point x="419" y="1203"/>
      <point x="506" y="1330"/>
      <point x="666" y="1334" type="curve" smooth="yes"/>
      <point x="787" y="1337"/>
      <point x="852" y="1286"/>
      <point x="924" y="1226" type="curve"/>
    </contour>
  </outline>
</glyph>
<glyph name="yen" format="1">
  <advance width="1366"/>
  <unicode hex="00A5"/>
  <outline>
    <contour>
      <point x="266" y="258" type="line"/>
      <point x="1075" y="258" type="line"/>
      <point x="1075" y="365" type="line"/>
      <point x="266" y="365" type="line"/>
    </contour>
    <contour>
      <point x="266" y="507" type="line"/>
      <point x="1075" y="507" type="line"/>
      <point x="1075" y="614" type="line"/>
      <point x="266" y="614" type="line"/>
    </contour>
    <component base="Y"/>
  </outline>
</glyph>
<glyph name="section" format="1">
  <advance width="1079"/>
  <unicode hex="00A7"/>
  <outline>
    <contour>
      <point x="521" y="-20" type="curve" smooth="yes"/>
      <point x="715" y="-20"/>
      <point x="882" y="69"/>
      <point x="882" y="287" type="curve" smooth="yes"/>
      <point x="882" y="375"/>
      <point x="866" y="438"/>
      <point x="815" y="490" type="curve"/>
      <point x="857" y="538"/>
      <point x="882" y="603"/>
      <point x="882" y="687" type="curve" smooth="yes"/>
      <point x="882" y="849"/>
      <point x="829" y="930"/>
      <point x="592" y="1004" type="curve" smooth="yes"/>
      <point x="351.211" y="1079.68"/>
      <point x="320" y="1105"/>
      <point x="320" y="1191" type="curve" smooth="yes"/>
      <point x="320" y="1288"/>
      <point x="373" y="1349"/>
      <point x="534" y="1349" type="curve" smooth="yes"/>
      <point x="645" y="1349"/>
      <point x="742" y="1309"/>
      <point x="801" y="1280" type="curve"/>
      <point x="840" y="1402" type="line"/>
      <point x="749" y="1447"/>
      <point x="643" y="1476"/>
      <point x="517" y="1476" type="curve" smooth="yes"/>
      <point x="290" y="1476"/>
      <point x="167" y="1356"/>
      <point x="167" y="1188" type="curve" smooth="yes"/>
      <point x="167" y="1108"/>
      <point x="186" y="1043"/>
      <point x="251" y="990" type="curve"/>
      <point x="196" y="940"/>
      <point x="167" y="869"/>
      <point x="167" y="789" type="curve" smooth="yes"/>
      <point x="167" y="660"/>
      <point x="215" y="573"/>
      <point x="416" y="509" type="curve" smooth="yes"/>
      <point x="691.083" y="421.258"/>
      <point x="735" y="369"/>
      <point x="735" y="290" type="curve" smooth="yes"/>
      <point x="735" y="170"/>
      <point x="660" y="105"/>
      <point x="533" y="105" type="curve" smooth="yes"/>
      <point x="417" y="105"/>
      <point x="313" y="137"/>
      <point x="190" y="196" type="curve"/>
      <point x="190" y="58" type="line"/>
      <point x="293" y="9"/>
      <point x="411" y="-20"/>
    </contour>
    <contour>
      <point x="695" y="566" type="curve"/>
      <point x="665" y="579"/>
      <point x="631.324" y="592.016"/>
      <point x="487" y="636" type="curve" smooth="yes"/>
      <point x="351" y="680"/>
      <point x="320" y="705"/>
      <point x="320" y="792" type="curve" smooth="yes"/>
      <point x="320" y="850"/>
      <point x="337" y="892"/>
      <point x="385" y="920" type="curve"/>
      <point x="395" y="915"/>
      <point x="405.137" y="911.465"/>
      <point x="532" y="871" type="curve" smooth="yes"/>
      <point x="691" y="821"/>
      <point x="735" y="768"/>
      <point x="735" y="690" type="curve" smooth="yes"/>
      <point x="735" y="638"/>
      <point x="721" y="595"/>
    </contour>
  </outline>
</glyph>
<glyph name="guillemotleft" format="1">
  <advance width="994"/>
  <unicode hex="00AB"/>
  <outline>
    <contour>
      <point x="370" y="148" type="line"/>
      <point x="527" y="148" type="line"/>
      <point x="251" y="552" type="line"/>
      <point x="535" y="953" type="line"/>
      <point x="374" y="953" type="line"/>
      <point x="86" y="549" type="line"/>
    </contour>
    <contour>
      <point x="723" y="148" type="line"/>
      <point x="880" y="148" type="line"/>
      <point x="603" y="552" type="line"/>
      <point x="887" y="953" type="line"/>
      <point x="726" y="953" type="line"/>
      <point x="439" y="549" type="line"/>
    </contour>
  </outline>
</glyph>
<glyph name="uni00AD" format="1">
  <advance width="862"/>
  <unicode hex="00AD"/>
  <outline>
    <contour>
      <point x="95" y="535" type="line"/>
      <point x="766" y="535" type="line"/>
      <point x="766" y="668" type="line"/>
      <point x="95" y="668" type="line"/>
    </contour>
  </outline>
</glyph>
<glyph name="paragraph" format="1">
  <advance width="1136"/>
  <unicode hex="00B6"/>
  <outline>
    <contour>
      <point x="640" y="1334" type="line"/>
      <point x="774" y="1334" type="line"/>
      <point x="774" y="-200" type="line"/>
      <point x="898" y="-200" type="line"/>
      <point x="898" y="1456" type="line"/>
      <point x="547" y="1456" type="line" smooth="yes"/>
      <point x="227" y="1456"/>
      <point x="134" y="1276"/>
      <point x="134" y="1117" type="curve" smooth="yes"/>
      <point x="134" y="942"/>
      <point x="235" y="771"/>
      <point x="516" y="771" type="curve"/>
      <point x="516" y="-200" type="line"/>
      <point x="640" y="-200" type="line"/>
    </contour>
  </outline>
</glyph>
<glyph name="ordmasculine" format="1">
  <advance width="965"/>
  <unicode hex="00BA"/>
  <outline>
    <contour>
      <point x="144" y="1092" type="curve" smooth="yes"/>
      <point x="144" y="875"/>
      <point x="262" y="713"/>
      <point x="480" y="713" type="curve" smooth="yes"/>
      <point x="686" y="713"/>
      <point x="816" y="878"/>
      <point x="816" y="1092" type="curve" smooth="yes"/>
      <point x="816" y="1317"/>
      <point x="704" y="1477"/>
      <point x="480" y="1477" type="curve" smooth="yes"/>
      <point x="262" y="1477"/>
      <point x="144" y="1314"/>
    </contour>
    <contour>
      <point x="686" y="1089" type="curve" smooth="yes"/>
      <point x="686" y="920"/>
      <point x="620" y="820"/>
      <point x="480" y="820" type="curve" smooth="yes"/>
      <point x="347" y="820"/>
      <point x="281" y="921"/>
      <point x="281" y="1092" type="curve" smooth="yes"/>
      <point x="281" y="1265"/>
      <point x="348" y="1370"/>
      <point x="480" y="1370" type="curve" smooth="yes"/>
      <point x="616" y="1370"/>
      <point x="686" y="1263"/>
    </contour>
  </outline>
</glyph>
<glyph name="onequarter" format="1">
  <advance width="1752"/>
  <unicode hex="00BC"/>
  <outline>
    <contour>
      <point x="135" y="593" type="line"/>
      <point x="560" y="593" type="line"/>
      <point x="560" y="705" type="line"/>
      <point x="421" y="705" type="line"/>
      <point x="421" y="1476" type="line"/>
      <point x="311" y="1476" type="line"/>
      <point x="269" y="1437"/>
      <point x="156" y="1386"/>
      <point x="126" y="1373" type="curve"/>
      <point x="126" y="1259" type="line"/>
      <point x="154" y="1272"/>
      <point x="246" y="1309"/>
      <point x="283" y="1333" type="curve"/>
      <point x="283" y="705" type="line"/>
      <point x="135" y="705" type="line"/>
    </contour>
    <contour>
      <point x="1398" y="0" type="line"/>
      <point x="1525" y="0" type="line"/>
      <point x="1525" y="191" type="line"/>
      <point x="1647" y="191" type="line"/>
      <point x="1639" y="297" type="line"/>
      <point x="1526" y="297" type="line"/>
      <point x="1526" y="857" type="line"/>
      <point x="1388" y="857" type="line"/>
      <point x="993" y="284" type="line"/>
      <point x="993" y="191" type="line"/>
      <point x="1398" y="191" type="line"/>
    </contour>
    <contour>
      <point x="384" y="0" type="line"/>
      <point x="516" y="0" type="line"/>
      <point x="1423" y="1476" type="line"/>
      <point x="1292" y="1476" type="line"/>
    </contour>
    <contour>
      <point x="1132" y="297" type="line"/>
      <point x="1397" y="690" type="line"/>
      <point x="1397" y="297" type="line"/>
    </contour>
  </outline>
</glyph>
<glyph name="onehalf" format="1">
  <advance width="1752"/>
  <unicode hex="00BD"/>
  <outline>
    <contour>
      <point x="1141" y="0" type="line"/>
      <point x="1647" y="0" type="line"/>
      <point x="1653" y="114" type="line"/>
      <point x="1298" y="114" type="line"/>
      <point x="1474" y="281" type="line" smooth="yes"/>
      <point x="1600" y="400"/>
      <point x="1661" y="474"/>
      <point x="1661" y="615" type="curve" smooth="yes"/>
      <point x="1661" y="782"/>
      <point x="1530" y="871"/>
      <point x="1378" y="871" type="curve" smooth="yes"/>
      <point x="1263" y="871"/>
      <point x="1153" y="812"/>
      <point x="1100" y="716" type="curve"/>
      <point x="1172" y="637" type="line"/>
      <point x="1230" y="716"/>
      <point x="1298" y="751"/>
      <point x="1376" y="751" type="curve" smooth="yes"/>
      <point x="1458" y="751"/>
      <point x="1529" y="705"/>
      <point x="1529" y="607" type="curve" smooth="yes"/>
      <point x="1529" y="536"/>
      <point x="1498" y="475"/>
      <point x="1384" y="358" type="curve" smooth="yes"/>
      <point x="1141" y="110" type="line"/>
    </contour>
    <contour>
      <point x="135" y="593" type="line"/>
      <point x="560" y="593" type="line"/>
      <point x="560" y="705" type="line"/>
      <point x="421" y="705" type="line"/>
      <point x="421" y="1476" type="line"/>
      <point x="311" y="1476" type="line"/>
      <point x="269" y="1437"/>
      <point x="156" y="1386"/>
      <point x="126" y="1373" type="curve"/>
      <point x="126" y="1259" type="line"/>
      <point x="154" y="1272"/>
      <point x="246" y="1309"/>
      <point x="283" y="1333" type="curve"/>
      <point x="283" y="705" type="line"/>
      <point x="135" y="705" type="line"/>
    </contour>
    <contour>
      <point x="374" y="0" type="line"/>
      <point x="506" y="0" type="line"/>
      <point x="1413" y="1476" type="line"/>
      <point x="1282" y="1476" type="line"/>
    </contour>
  </outline>
</glyph>
<glyph name="AE" format="1">
  <advance width="1562"/>
  <unicode hex="00C6"/>
  <outline>
    <contour>
      <point x="661" y="1456" type="line"/>
      <point x="-104" y="0" type="line"/>
      <point x="84" y="0" type="line"/>
      <point x="330" y="472" type="line"/>
      <point x="762" y="472" type="line"/>
      <point x="762" y="0" type="line"/>
      <point x="1517" y="0" type="line"/>
      <point x="1529" y="137" type="line"/>
      <point x="931" y="137" type="line"/>
      <point x="931" y="696" type="line"/>
      <point x="1446" y="696" type="line"/>
      <point x="1446" y="832" type="line"/>
      <point x="931" y="832" type="line"/>
      <point x="931" y="1321" type="line"/>
      <point x="1508" y="1321" type="line"/>
      <point x="1514" y="1456" type="line"/>
    </contour>
    <contour>
      <point x="762" y="597" type="line"/>
      <point x="393" y="597" type="line"/>
      <point x="762" y="1315" type="line"/>
    </contour>
  </outline>
</glyph>
<glyph name="multiply" format="1">
  <advance width="994"/>
  <unicode hex="00D7"/>
  <outline>
    <contour>
      <point x="115" y="979" type="line"/>
      <point x="401" y="667" type="line"/>
      <point x="105" y="346" type="line"/>
      <point x="196" y="253" type="line"/>
      <point x="492" y="570" type="line"/>
      <point x="786" y="253" type="line"/>
      <point x="873" y="349" type="line"/>
      <point x="873" y="349"/>
      <point x="604" y="645"/>
      <point x="582" y="667" type="curve"/>
      <point x="870" y="975" type="line"/>
      <point x="775" y="1071" type="line"/>
      <point x="492" y="763" type="line"/>
      <point x="206" y="1075" type="line"/>
    </contour>
  </outline>
</glyph>
<glyph name="Thorn" format="1">
  <advance width="1192"/>
  <unicode hex="00DE"/>
  <outline>
    <contour>
      <point x="192" y="0" type="line"/>
      <point x="368" y="0" type="line"/>
      <point x="368" y="507" type="line"/>
      <point x="323" y="462" type="line"/>
      <point x="555" y="462" type="line" smooth="yes"/>
      <point x="893" y="462"/>
      <point x="1017" y="588"/>
      <point x="1017" y="835" type="curve" smooth="yes"/>
      <point x="1017" y="1093"/>
      <point x="829" y="1170"/>
      <point x="558" y="1170" type="curve" smooth="yes"/>
      <point x="323" y="1170" type="line"/>
      <point x="368" y="1125" type="line"/>
      <point x="368" y="1496" type="line"/>
      <point x="192" y="1496" type="line"/>
    </contour>
    <contour>
      <point x="368" y="548" type="line"/>
      <point x="368" y="1086" type="line"/>
      <point x="323" y="1041" type="line"/>
      <point x="557" y="1041" type="line" smooth="yes"/>
      <point x="737" y="1041"/>
      <point x="841" y="1001"/>
      <point x="841" y="833" type="curve" smooth="yes"/>
      <point x="841" y="646"/>
      <point x="768" y="593"/>
      <point x="551" y="593" type="curve" smooth="yes"/>
      <point x="323" y="593" type="line"/>
    </contour>
  </outline>
</glyph>
<glyph name="germandbls" format="1">
  <advance width="1278"/>
  <unicode hex="00DF"/>
  <outline>
    <contour>
      <point x="846" y="-20" type="curve" smooth="yes"/>
      <point x="1046" y="-20"/>
      <point x="1168" y="102"/>
      <point x="1168" y="294" type="curve" smooth="yes"/>
      <point x="1168" y="592"/>
      <point x="776" y="705"/>
      <point x="776" y="824" type="curve" smooth="yes"/>
      <point x="776" y="917"/>
      <point x="985" y="1029"/>
      <point x="985" y="1244" type="curve" smooth="yes"/>
      <point x="985" y="1433"/>
      <point x="842" y="1560"/>
      <point x="618" y="1560" type="curve" smooth="yes"/>
      <point x="321" y="1560"/>
      <point x="169" y="1382"/>
      <point x="169" y="1088" type="curve" smooth="yes"/>
      <point x="169" y="1" type="line"/>
      <point x="333" y="1" type="line"/>
      <point x="333" y="1092" type="line" smooth="yes"/>
      <point x="333" y="1336"/>
      <point x="436" y="1429"/>
      <point x="623" y="1429" type="curve" smooth="yes"/>
      <point x="760" y="1429"/>
      <point x="828" y="1354"/>
      <point x="828" y="1245" type="curve" smooth="yes"/>
      <point x="828" y="1037"/>
      <point x="624" y="977"/>
      <point x="624" y="809" type="curve" smooth="yes"/>
      <point x="624" y="611"/>
      <point x="1008" y="506"/>
      <point x="1008" y="291" type="curve" smooth="yes"/>
      <point x="1008" y="199"/>
      <point x="955" y="114"/>
      <point x="827" y="114" type="curve" smooth="yes"/>
      <point x="716" y="114"/>
      <point x="603" y="153"/>
      <point x="547" y="183" type="curve"/>
      <point x="503" y="58" type="line"/>
      <point x="581" y="18"/>
      <point x="720" y="-20"/>
    </contour>
  </outline>
</glyph>
<glyph name="ae" format="1">
  <advance width="1647"/>
  <unicode hex="00E6"/>
  <outline>
    <contour>
      <point x="1226" y="-20" type="curve" smooth="yes"/>
      <point x="1375" y="-20"/>
      <point x="1500" y="24"/>
      <point x="1590" y="84" type="curve"/>
      <point x="1539" y="197" type="line"/>
      <point x="1449" y="146"/>
      <point x="1372" y="106"/>
      <point x="1247" y="106" type="curve" smooth="yes"/>
      <point x="1050" y="106"/>
      <point x="913" y="206"/>
      <point x="896" y="486" type="curve"/>
      <point x="1269" y="459"/>
      <point x="1589" y="451"/>
      <point x="1579" y="797" type="curve" smooth="yes"/>
      <point x="1574" y="968"/>
      <point x="1439" y="1102"/>
      <point x="1209" y="1102" type="curve" smooth="yes"/>
      <point x="1058" y="1102"/>
      <point x="926" y="1046"/>
      <point x="844" y="896" type="curve"/>
      <point x="798" y="1049"/>
      <point x="675" y="1102"/>
      <point x="497" y="1102" type="curve" smooth="yes"/>
      <point x="324" y="1102"/>
      <point x="205" y="1057"/>
      <point x="79" y="971" type="curve"/>
      <point x="149" y="866" type="line"/>
      <point x="273" y="950"/>
      <point x="405" y="976"/>
      <point x="507" y="976" type="curve" smooth="yes"/>
      <point x="670" y="976"/>
      <point x="741" y="908"/>
      <point x="741" y="718" type="curve" smooth="yes"/>
      <point x="741" y="612" type="line"/>
      <point x="652" y="622"/>
      <point x="527" y="626"/>
      <point x="475" y="626" type="curve" smooth="yes"/>
      <point x="156" y="626"/>
      <point x="61" y="482"/>
      <point x="61" y="293" type="curve" smooth="yes"/>
      <point x="61" y="92"/>
      <point x="191" y="-11"/>
      <point x="382" y="-20" type="curve"/>
      <point x="552" y="-20"/>
      <point x="736" y="34"/>
      <point x="825" y="212" type="curve"/>
      <point x="900" y="58"/>
      <point x="1047" y="-20"/>
    </contour>
    <contour>
      <point x="433" y="102" type="curve" smooth="yes"/>
      <point x="340" y="102"/>
      <point x="219" y="145"/>
      <point x="219" y="292" type="curve" smooth="yes"/>
      <point x="219" y="415"/>
      <point x="261" y="513"/>
      <point x="491" y="513" type="curve" smooth="yes"/>
      <point x="537" y="513"/>
      <point x="656" y="508"/>
      <point x="740" y="498" type="curve"/>
      <point x="737" y="365" type="line" smooth="yes"/>
      <point x="733" y="193"/>
      <point x="606" y="102"/>
    </contour>
    <contour>
      <point x="898" y="605" type="curve"/>
      <point x="914" y="854"/>
      <point x="1021" y="976"/>
      <point x="1212" y="976" type="curve" smooth="yes"/>
      <point x="1347" y="976"/>
      <point x="1416" y="891"/>
      <point x="1422" y="801" type="curve" smooth="yes"/>
      <point x="1430" y="683"/>
      <point x="1444" y="557"/>
    </contour>
    <contour>
      <point x="881" y="1082" type="move" name="top"/>
    </contour>
  </outline>
</glyph>
<glyph name="divide" format="1">
  <advance width="1164"/>
  <unicode hex="00F7"/>
  <outline>
    <contour>
      <point x="105" y="645" type="line"/>
      <point x="105" y="507" type="line"/>
      <point x="1056" y="507" type="line"/>
      <point x="1056" y="645" type="line"/>
    </contour>
    <contour>
      <point x="486" y="238" type="line"/>
      <point x="486" y="32" type="line"/>
      <point x="677" y="32" type="line"/>
      <point x="677" y="238" type="line"/>
    </contour>
    <contour>
      <point x="486" y="1094" type="line"/>
      <point x="486" y="892" type="line"/>
      <point x="679" y="892" type="line"/>
      <point x="679" y="1094" type="line"/>
    </contour>
  </outline>
</glyph>
<glyph name="Hbar" format="1">
  <advance width="1476"/>
  <unicode hex="0126"/>
  <outline>
    <contour>
      <point x="63" y="1279" type="line"/>
      <point x="63" y="1162" type="line"/>
      <point x="1403" y="1162" type="line"/>
      <point x="1403" y="1279" type="line"/>
    </contour>
    <component base="H"/>
  </outline>
</glyph>
<glyph name="Eng" format="1">
  <advance width="1505"/>
  <unicode hex="014A"/>
  <outline>
    <contour>
      <point x="1148" y="900" type="line"/>
      <point x="1149" y="0" type="line"/>
      <point x="1149" y="-211"/>
      <point x="1101" y="-294"/>
      <point x="720" y="-294" type="curve"/>
      <point x="720" y="-427" type="line"/>
      <point x="1132" y="-427"/>
      <point x="1306" y="-331"/>
      <point x="1306" y="0" type="curve"/>
      <point x="1306" y="900" type="line"/>
    </contour>
    <component base="N"/>
  </outline>
</glyph>
<glyph name="eng" format="1">
  <advance width="1192"/>
  <unicode hex="014B"/>
  <outline>
    <contour>
      <point x="882" y="120" type="line"/>
      <point x="882" y="-10" type="line"/>
      <point x="881" y="-225"/>
      <point x="845" y="-294"/>
      <point x="460" y="-294" type="curve"/>
      <point x="460" y="-427" type="line"/>
      <point x="902" y="-427"/>
      <point x="1046" y="-341"/>
      <point x="1046" y="-10" type="curve"/>
      <point x="1046" y="120" type="line"/>
    </contour>
    <component base="n"/>
  </outline>
</glyph>
<glyph name="oe" format="1">
  <advance width="1915.359"/>
  <unicode hex="0153"/>
  <outline>
    <contour>
      <point x="1736" y="197" type="line"/>
      <point x="1646" y="146"/>
      <point x="1569" y="106"/>
      <point x="1444" y="106" type="curve" smooth="yes"/>
      <point x="1246" y="106"/>
      <point x="1080" y="222.499"/>
      <point x="1080" y="516" type="curve"/>
      <point x="1810" y="516" type="line"/>
      <point x="1810" y="516"/>
      <point x="1817" y="576"/>
      <point x="1818" y="602" type="curve" smooth="yes"/>
      <point x="1827" y="914"/>
      <point x="1666" y="1106"/>
      <point x="1403" y="1106" type="curve" smooth="yes"/>
      <point x="1239" y="1106"/>
      <point x="1070" y="1008"/>
      <point x="1002" y="846" type="curve"/>
      <point x="944" y="1006"/>
      <point x="787" y="1106"/>
      <point x="596" y="1106" type="curve" smooth="yes"/>
      <point x="280" y="1106"/>
      <point x="112" y="886"/>
      <point x="112" y="542" type="curve" smooth="yes"/>
      <point x="112" y="206"/>
      <point x="284" y="-20"/>
      <point x="596" y="-20" type="curve" smooth="yes"/>
      <point x="785" y="-20"/>
      <point x="952" y="93"/>
      <point x="1001" y="252" type="curve"/>
      <point x="1063" y="90"/>
      <point x="1246" y="-20"/>
      <point x="1423" y="-20" type="curve" smooth="yes"/>
      <point x="1572" y="-20"/>
      <point x="1697" y="24"/>
      <point x="1787" y="84" type="curve"/>
      <point x="1748" y="197" type="line"/>
    </contour>
    <contour>
      <point x="596" y="106" type="curve" smooth="yes"/>
      <point x="375" y="106"/>
      <point x="282" y="294"/>
      <point x="282" y="541" type="curve" smooth="yes"/>
      <point x="282" y="794"/>
      <point x="376" y="980"/>
      <point x="596" y="980" type="curve" smooth="yes"/>
      <point x="816" y="980"/>
      <point x="910" y="794"/>
      <point x="910" y="541" type="curve" smooth="yes"/>
      <point x="910" y="294"/>
      <point x="817" y="106"/>
    </contour>
    <contour>
      <point x="1083" y="627" type="line"/>
      <point x="1103" y="845"/>
      <point x="1232" y="983"/>
      <point x="1415" y="980" type="curve" smooth="yes"/>
      <point x="1591" y="977"/>
      <point x="1674" y="848"/>
      <point x="1677" y="627" type="curve"/>
    </contour>
    <contour>
      <point x="1415" y="1" type="move" name="bot"/>
    </contour>
    <contour>
      <point x="1402" y="1083" type="move" name="top"/>
    </contour>
    <contour>
      <point x="1702" y="54" type="move" name="ogonek"/>
    </contour>
  </outline>
</glyph>
<glyph name="florin" format="1">
  <advance width="1016"/>
  <unicode hex="0192"/>
  <outline>
    <contour>
      <point x="564" y="1241" type="curve" smooth="yes"/>
      <point x="533" y="1082" type="line"/>
      <point x="371" y="1082" type="line"/>
      <point x="354" y="998" type="line"/>
      <point x="519" y="998" type="line"/>
      <point x="305" y="123" type="line" smooth="yes"/>
      <point x="263" y="-48"/>
      <point x="295" y="-214"/>
      <point x="28" y="-161" type="curve"/>
      <point x="10" y="-245" type="line"/>
      <point x="208" y="-302"/>
      <point x="396" y="-163"/>
      <point x="465" y="122" type="curve" smooth="yes"/>
      <point x="678" y="998" type="line"/>
      <point x="891" y="998" type="line"/>
      <point x="908" y="1082" type="line"/>
      <point x="696" y="1082" type="line"/>
      <point x="729" y="1254" type="line" smooth="yes"/>
      <point x="749" y="1354"/>
      <point x="771" y="1452"/>
      <point x="869" y="1452" type="curve" smooth="yes"/>
      <point x="921" y="1452"/>
      <point x="947" y="1402"/>
      <point x="947" y="1301" type="curve"/>
      <point x="1080" y="1301" type="line"/>
      <point x="1080" y="1487"/>
      <point x="978" y="1534"/>
      <point x="862" y="1534" type="curve" smooth="yes"/>
      <point x="681" y="1534"/>
      <point x="597" y="1404"/>
    </contour>
  </outline>
</glyph>
<glyph name="ogonek" format="1">
  <advance width="766"/>
  <unicode hex="02DB"/>
  <outline>
    <contour>
      <point x="441" y="-420" type="curve" smooth="yes"/>
      <point x="490" y="-420"/>
      <point x="553" y="-406"/>
      <point x="585" y="-390" type="curve"/>
      <point x="583" y="-287" type="line"/>
      <point x="564" y="-295"/>
      <point x="517" y="-311"/>
      <point x="475" y="-311" type="curve" smooth="yes"/>
      <point x="430" y="-311"/>
      <point x="392" y="-288"/>
      <point x="392" y="-230" type="curve" smooth="yes"/>
      <point x="392" y="-152"/>
      <point x="479" y="-39"/>
      <point x="538" y="4" type="curve"/>
      <point x="458" y="4" type="line"/>
      <point x="354" y="-38"/>
      <point x="252" y="-156"/>
      <point x="252" y="-270" type="curve" smooth="yes"/>
      <point x="252" y="-361"/>
      <point x="316" y="-420"/>
    </contour>
    <contour>
      <point x="493" y="0" type="move" name="_ogonek"/>
    </contour>
  </outline>
</glyph>
<glyph name="pi" format="1">
  <advance width="1440"/>
  <unicode hex="03C0"/>
  <outline>
    <contour>
      <point x="1142" y="-13" type="curve" smooth="yes"/>
      <point x="1221" y="-13"/>
      <point x="1289" y="11"/>
      <point x="1324" y="45" type="curve"/>
      <point x="1324" y="177" type="line"/>
      <point x="1295" y="166"/>
      <point x="1235" y="140"/>
      <point x="1193" y="140" type="curve" smooth="yes"/>
      <point x="1111" y="140"/>
      <point x="1067" y="242"/>
      <point x="1067" y="462" type="curve" smooth="yes"/>
      <point x="1067" y="578"/>
      <point x="1079" y="727"/>
      <point x="1105" y="912" type="curve"/>
      <point x="1347" y="912" type="line"/>
      <point x="1347" y="1082" type="line"/>
      <point x="435" y="1082" type="line" smooth="yes"/>
      <point x="191" y="1082"/>
      <point x="116" y="999"/>
      <point x="116" y="777" type="curve"/>
      <point x="214" y="777" type="line"/>
      <point x="226" y="855"/>
      <point x="267" y="912"/>
      <point x="349" y="912" type="curve" smooth="yes"/>
      <point x="479" y="912" type="line"/>
      <point x="414" y="399" type="line" smooth="yes"/>
      <point x="386" y="176"/>
      <point x="258" y="115"/>
      <point x="128" y="115" type="curve"/>
      <point x="128" y="4" type="line"/>
      <point x="483" y="4"/>
      <point x="556" y="108"/>
      <point x="566" y="333" type="curve" smooth="yes"/>
      <point x="592" y="912" type="line"/>
      <point x="977" y="912" type="line"/>
      <point x="946" y="677"/>
      <point x="903" y="457"/>
      <point x="903" y="291" type="curve" smooth="yes"/>
      <point x="903" y="106"/>
      <point x="957" y="-13"/>
    </contour>
  </outline>
</glyph>
<glyph name="emdash" format="1">
  <advance width="2117"/>
  <unicode hex="2014"/>
  <outline>
    <contour>
      <point x="60" y="521" type="line"/>
      <point x="2057" y="521" type="line"/>
      <point x="2057" y="658" type="line"/>
      <point x="60" y="658" type="line"/>
    </contour>
  </outline>
</glyph>
<glyph name="dagger" format="1">
  <advance width="1050"/>
  <unicode hex="2020"/>
  <outline>
    <contour>
      <point x="466" y="1494" type="line"/>
      <point x="466" y="1111" type="line"/>
      <point x="179" y="1111" type="line"/>
      <point x="179" y="1010" type="line"/>
      <point x="466" y="1010" type="line"/>
      <point x="466" y="118" type="line"/>
      <point x="575" y="118" type="line"/>
      <point x="575" y="1010" type="line"/>
      <point x="866" y="1010" type="line"/>
      <point x="866" y="1111" type="line"/>
      <point x="573" y="1111" type="line"/>
      <point x="573" y="1494" type="line"/>
    </contour>
  </outline>
</glyph>
<glyph name="daggerdbl" format="1">
  <advance width="1022"/>
  <unicode hex="2021"/>
  <outline>
    <contour>
      <point x="462" y="1475" type="line"/>
      <point x="462" y="1090" type="line"/>
      <point x="186" y="1090" type="line"/>
      <point x="186" y="990" type="line"/>
      <point x="462" y="990" type="line"/>
      <point x="462" y="547" type="line"/>
      <point x="186" y="547" type="line"/>
      <point x="186" y="452" type="line"/>
      <point x="462" y="452" type="line"/>
      <point x="462" y="79" type="line"/>
      <point x="573" y="79" type="line"/>
      <point x="573" y="452" type="line"/>
      <point x="844" y="452" type="line"/>
      <point x="844" y="547" type="line"/>
      <point x="573" y="547" type="line"/>
      <point x="573" y="990" type="line"/>
      <point x="845" y="990" type="line"/>
      <point x="845" y="1090" type="line"/>
      <point x="569" y="1090" type="line"/>
      <point x="569" y="1475" type="line"/>
    </contour>
  </outline>
</glyph>
<glyph name="perthousand" format="1">
  <advance width="2251"/>
  <unicode hex="2030"/>
  <outline>
    <contour>
      <point x="1789" y="94" type="curve" smooth="yes"/>
      <point x="1633" y="94"/>
      <point x="1605" y="216"/>
      <point x="1605" y="382" type="curve" smooth="yes"/>
      <point x="1605" y="543"/>
      <point x="1633" y="666"/>
      <point x="1789" y="666" type="curve" smooth="yes"/>
      <point x="1944" y="666"/>
      <point x="1972" y="549"/>
      <point x="1972" y="382" type="curve" smooth="yes"/>
      <point x="1972" y="221"/>
      <point x="1945" y="94"/>
    </contour>
    <contour>
      <point x="1788" y="-1" type="curve" smooth="yes"/>
      <point x="2012" y="-1"/>
      <point x="2088" y="166"/>
      <point x="2088" y="381" type="curve" smooth="yes"/>
      <point x="2088" y="601"/>
      <point x="2015" y="763"/>
      <point x="1788" y="763" type="curve" smooth="yes"/>
      <point x="1566" y="763"/>
      <point x="1489" y="598"/>
      <point x="1489" y="381" type="curve" smooth="yes"/>
      <point x="1489" y="166"/>
      <point x="1562" y="-1"/>
    </contour>
    <component base="percent" xOffset="10"/>
  </outline>
</glyph>
<glyph name="fraction" format="1">
  <advance width="1029"/>
  <unicode hex="2044"/>
  <outline>
    <contour>
      <point x="136" y="0" type="line"/>
      <point x="280" y="0" type="line"/>
      <point x="893" y="1456" type="line"/>
      <point x="745" y="1456" type="line"/>
    </contour>
  </outline>
</glyph>
<glyph name="foursuperior" format="1">
  <advance width="1003"/>
  <unicode hex="2074"/>
  <outline>
    <contour>
      <point x="621" y="599" type="line"/>
      <point x="748" y="599" type="line"/>
      <point x="748" y="790" type="line"/>
      <point x="870" y="790" type="line"/>
      <point x="862" y="896" type="line"/>
      <point x="749" y="896" type="line"/>
      <point x="749" y="1456" type="line"/>
      <point x="611" y="1456" type="line"/>
      <point x="216" y="883" type="line"/>
      <point x="216" y="790" type="line"/>
      <point x="621" y="790" type="line"/>
    </contour>
    <contour>
      <point x="355" y="896" type="line"/>
      <point x="620" y="1289" type="line"/>
      <point x="620" y="896" type="line"/>
    </contour>
  </outline>
</glyph>
<glyph name="trademark" format="1">
  <advance width="2216"/>
  <unicode hex="2122"/>
  <outline>
    <contour>
      <point x="981" y="522" type="line"/>
      <point x="1105" y="522" type="line"/>
      <point x="1110" y="1285" type="line"/>
      <point x="1419" y="636" type="line"/>
      <point x="1522" y="636" type="line"/>
      <point x="1833" y="1276" type="line"/>
      <point x="1839" y="522" type="line"/>
      <point x="1961" y="522" type="line"/>
      <point x="1944" y="1456" type="line"/>
      <point x="1801" y="1456" type="line"/>
      <point x="1472" y="785" type="line"/>
      <point x="1145" y="1456" type="line"/>
      <point x="998" y="1456" type="line"/>
    </contour>
    <contour>
      <point x="396" y="522" type="line"/>
      <point x="536" y="522" type="line"/>
      <point x="536" y="1342" type="line"/>
      <point x="854" y="1342" type="line"/>
      <point x="854" y="1456" type="line"/>
      <point x="80" y="1456" type="line"/>
      <point x="80" y="1342" type="line"/>
      <point x="396" y="1342" type="line"/>
    </contour>
  </outline>
</glyph>
<glyph name="partialdiff" format="1">
  <advance width="1163"/>
  <unicode hex="2202"/>
  <outline>
    <contour>
      <point x="462" y="-19" type="curve" smooth="yes"/>
      <point x="801" y="-19"/>
      <point x="1033" y="380"/>
      <point x="1033" y="906" type="curve" smooth="yes"/>
      <point x="1033" y="1450"/>
      <point x="633" y="1698"/>
      <point x="234" y="1482" type="curve"/>
      <point x="271" y="1389" type="line"/>
      <point x="594" y="1537"/>
      <point x="893" y="1332"/>
      <point x="869" y="917" type="curve"/>
      <point x="133" y="917"/>
      <point x="-77" y="-19"/>
    </contour>
    <contour>
      <point x="476" y="84" type="curve" smooth="yes"/>
      <point x="215" y="84"/>
      <point x="370" y="816"/>
      <point x="864" y="829" type="curve"/>
      <point x="846" y="542"/>
      <point x="735" y="84"/>
    </contour>
  </outline>
</glyph>
<glyph name="uni2206" format="1">
  <advance width="1278"/>
  <unicode hex="2206"/>
  <outline>
    <contour>
      <point x="547" y="1537" type="line"/>
      <point x="65" y="85" type="line"/>
      <point x="65" y="0" type="line"/>
      <point x="1214" y="0" type="line"/>
      <point x="1214" y="85" type="line"/>
      <point x="733" y="1537" type="line"/>
    </contour>
    <contour>
      <point x="669" y="1192" type="line"/>
      <point x="1018" y="173" type="line"/>
      <point x="261" y="173" type="line"/>
      <point x="603" y="1192" type="line"/>
      <point x="635" y="1310" type="line"/>
    </contour>
  </outline>
</glyph>
<glyph name="summation" format="1">
  <advance width="1050"/>
  <unicode hex="2211"/>
  <outline>
    <contour>
      <point x="87" y="1456" type="line"/>
      <point x="87" y="1361" type="line"/>
      <point x="571" y="627" type="line"/>
      <point x="65" y="-101" type="line"/>
      <point x="65" y="-192" type="line"/>
      <point x="1027" y="-192" type="line"/>
      <point x="1027" y="-40" type="line"/>
      <point x="296" y="-40" type="line"/>
      <point x="768" y="620" type="line"/>
      <point x="313" y="1313" type="line"/>
      <point x="980" y="1313" type="line"/>
      <point x="980" y="1456" type="line"/>
    </contour>
  </outline>
</glyph>
<glyph name="radical" format="1">
  <advance width="1136"/>
  <unicode hex="221A"/>
  <outline>
    <contour>
      <point x="993" y="1718" type="line"/>
      <point x="860" y="1160"/>
      <point x="729" y="606"/>
      <point x="597" y="48" type="curve"/>
      <point x="539" y="234" type="line"/>
      <point x="305" y="892" type="line"/>
      <point x="52" y="835" type="line"/>
      <point x="66" y="714" type="line"/>
      <point x="215" y="745" type="line"/>
      <point x="539" y="-162" type="line"/>
      <point x="674" y="-162" type="line"/>
      <point x="1103" y="1718" type="line"/>
    </contour>
  </outline>
</glyph>
<glyph name="integral" format="1">
  <advance width="994"/>
  <unicode hex="222B"/>
  <outline>
    <contour>
      <point x="539" y="1153" type="curve" smooth="yes"/>
      <point x="539" y="-40" type="line" smooth="yes"/>
      <point x="539" y="-204"/>
      <point x="520" y="-317"/>
      <point x="383" y="-317" type="curve" smooth="yes"/>
      <point x="356" y="-317"/>
      <point x="323" y="-313"/>
      <point x="287" y="-303" type="curve"/>
      <point x="287" y="-398" type="line"/>
      <point x="328" y="-407"/>
      <point x="365" y="-411"/>
      <point x="398" y="-411" type="curve" smooth="yes"/>
      <point x="579" y="-411"/>
      <point x="655" y="-278"/>
      <point x="655" y="-32" type="curve" smooth="yes"/>
      <point x="655" y="1162" type="line" smooth="yes"/>
      <point x="655" y="1322"/>
      <point x="679" y="1423"/>
      <point x="796" y="1423" type="curve" smooth="yes"/>
      <point x="823" y="1423"/>
      <point x="853" y="1418"/>
      <point x="889" y="1407" type="curve"/>
      <point x="889" y="1502" type="line"/>
      <point x="845" y="1512"/>
      <point x="806" y="1517"/>
      <point x="772" y="1517" type="curve" smooth="yes"/>
      <point x="601" y="1517"/>
      <point x="539" y="1394"/>
    </contour>
  </outline>
</glyph>
<glyph name="notequal" format="1">
  <advance width="1079"/>
  <unicode hex="2260"/>
  <outline>
    <contour>
      <point x="307" y="48" type="line"/>
      <point x="450" y="353" type="line"/>
      <point x="994" y="353" type="line"/>
      <point x="988" y="470" type="line"/>
      <point x="501" y="470" type="line"/>
      <point x="663" y="788" type="line"/>
      <point x="994" y="788" type="line"/>
      <point x="985" y="907" type="line"/>
      <point x="714" y="907" type="line"/>
      <point x="828" y="1189" type="line"/>
      <point x="732" y="1202" type="line"/>
      <point x="594" y="907" type="line"/>
      <point x="67" y="907" type="line"/>
      <point x="74" y="788" type="line"/>
      <point x="542" y="788" type="line"/>
      <point x="385" y="471" type="line"/>
      <point x="68" y="471" type="line"/>
      <point x="74" y="353" type="line"/>
      <point x="328" y="353" type="line"/>
      <point x="213" y="65" type="line"/>
    </contour>
  </outline>
</glyph>
<glyph name="greaterequal" format="1">
  <advance width="1192"/>
  <unicode hex="2265"/>
  <outline>
    <contour>
      <point x="158" y="236" type="line"/>
      <point x="1043" y="718" type="line"/>
      <point x="1043" y="798" type="line"/>
      <point x="162" y="1309" type="line"/>
      <point x="162" y="1169" type="line"/>
      <point x="868" y="758" type="line"/>
      <point x="158" y="373" type="line"/>
    </contour>
    <contour>
      <point x="128" y="8" type="line"/>
      <point x="1062" y="8" type="line"/>
      <point x="1062" y="134" type="line"/>
      <point x="128" y="133" type="line"/>
    </contour>
  </outline>
</glyph>
<glyph name="lozenge" format="1">
  <advance width="1164"/>
  <unicode hex="25CA"/>
  <outline>
    <contour>
      <point x="537" y="1585" type="line"/>
      <point x="122" y="767" type="line"/>
      <point x="530" y="-47" type="line"/>
      <point x="630" y="-47" type="line"/>
      <point x="1046" y="769" type="line"/>
      <point x="638" y="1585" type="line"/>
    </contour>
    <contour>
      <point x="898" y="767" type="line"/>
      <point x="584" y="133" type="line"/>
      <point x="270" y="769" type="line"/>
      <point x="590" y="1397" type="line"/>
    </contour>
  </outline>
</glyph>
<glyph name="middot" format="1">
  <advance width="600"/>
  <outline>
    <component base="period" yOffset="513"/>
    <contour>
      <point x="316" y="623" type="move" name="_mid"/>
    </contour>
  </outline>
</glyph>
<glyph name="threesuperior" format="1">
  <advance width="823"/>
  <outline>
    <contour>
      <point x="394" y="594" type="curve" smooth="yes"/>
      <point x="539" y="594"/>
      <point x="673" y="677"/>
      <point x="673" y="855" type="curve" smooth="yes"/>
      <point x="673" y="952"/>
      <point x="614" y="1031"/>
      <point x="510" y="1062" type="curve"/>
      <point x="615" y="1087"/>
      <point x="653" y="1189"/>
      <point x="653" y="1261" type="curve" smooth="yes"/>
      <point x="653" y="1408"/>
      <point x="532" y="1477"/>
      <point x="399" y="1477" type="curve" smooth="yes"/>
      <point x="315" y="1477"/>
      <point x="227" y="1449"/>
      <point x="161" y="1396" type="curve"/>
      <point x="211" y="1304" type="line"/>
      <point x="278" y="1344"/>
      <point x="341" y="1363"/>
      <point x="394" y="1363" type="curve" smooth="yes"/>
      <point x="471" y="1363"/>
      <point x="523" y="1322"/>
      <point x="523" y="1242" type="curve" smooth="yes"/>
      <point x="523" y="1160"/>
      <point x="460" y="1110"/>
      <point x="366" y="1110" type="curve" smooth="yes"/>
      <point x="275" y="1110" type="line"/>
      <point x="275" y="997" type="line"/>
      <point x="369" y="997" type="line" smooth="yes"/>
      <point x="484" y="997"/>
      <point x="542" y="948"/>
      <point x="542" y="850" type="curve" smooth="yes"/>
      <point x="542" y="749"/>
      <point x="478" y="708"/>
      <point x="395" y="708" type="curve" smooth="yes"/>
      <point x="336" y="708"/>
      <point x="267" y="730"/>
      <point x="208" y="766" type="curve"/>
      <point x="163" y="669" type="line"/>
      <point x="229" y="620"/>
      <point x="314" y="594"/>
    </contour>
  </outline>
</glyph>
